<svg xmlns="http://www.w3.org/2000/svg" version="1.1" xmlns:xlink="http://www.w3.org/1999/xlink" xmlns:svgjs="http://svgjs.dev/svgjs" width="2000" height="1500" viewBox="0 0 2000 1500"><rect width="2000" height="1500" fill="#1f0f53"></rect><g transform="matrix(0.4444444444444444,0,0,0.4444444444444444,555.5555555555557,250)"><svg viewBox="0 0 320 360" data-background-color="#1f0f53" preserveAspectRatio="xMidYMid meet" height="2250" width="2000" xmlns="http://www.w3.org/2000/svg" xmlns:xlink="http://www.w3.org/1999/xlink"><g id="tight-bounds" transform="matrix(1,0,0,1,0,0)"><svg viewBox="0 0 320 360" height="360" width="320"><g><svg></svg></g><g><svg viewBox="0 0 320 360" height="360" width="320"><g><path d="M165.217 303.356c-1.404-1.755-2.809-0.702-2.808-1.755-8.426 2.106-24.223-3.511-30.894-2.809 1.404-2.106-2.106-1.755-2.106-3.159-1.404 2.106-2.809 0-4.915 0.702-2.106-5.266-10.532-1.404-11.585-8.075-4.915 0-6.67-2.809-11.586-5.617 0.351-0.351 0.702-0.351 1.054-0.702-2.457-0.351-2.457-1.755-4.564-1.755l0.702-1.405c-3.862-0.702-5.266-6.67-10.883-8.776-1.755-0.351-5.617-6.319-7.723-7.724-1.053-0.702-2.809-0.702-0.352-1.053-0.351-0.351-0.351-1.053 0-1.404-2.457-0.702-2.809-2.809-5.968-3.862-0.351-1.053 0.702-1.755 0-2.457-0.702-0.351-1.755 0.351-2.457 0-0.351 6.319 6.67 7.021 8.777 12.287-0.702-0.702-1.755-2.809-2.458-1.404-0.351 1.053 2.809 4.915 2.809 2.808-1.053 0.702-1.404-1.053-0.703-1.404 1.053 1.755 3.16 1.404 3.16 2.809-1.053 1.053-2.457-1.053-2.106 0.702 3.16 1.755 2.809 3.511 4.563 5.968-1.404-1.755-1.755 1.404-3.159 0-0.351-5.266-6.319-4.213-6.319-9.479-0.702-1.755-1.404-0.351-2.458-1.053 1.404-1.404-4.213-6.319-4.213-4.564-1.755-2.106-0.702-2.809-1.053-4.213-1.404-0.351-0.351 1.404-1.404 0.351 1.404-2.457-1.755-5.617-3.862-8.074l1.405-0.702c-2.457-1.404-2.809-4.213-4.564-7.373-2.106 3.16 4.213 10.181 3.159 11.585 0 0.351 2.457 3.16 3.16 4.564 2.809 4.915 4.915 10.883 8.777 13.692-0.702-0.351-0.351-2.457 0.702-1.404 0 1.053-0.702 2.106-0.702 3.159 2.106 2.106 3.862 3.862 5.968 5.968-4.564-2.809-9.128-5.617-12.288-9.83 1.755-0.351 3.511 2.809 4.915 2.458-3.511-2.809-2.457-3.862-3.861-7.372-1.404-1.053 0.351 1.404-1.054 1.755-4.564-4.213-8.075-6.67-10.181-10.532 0.351-0.351 0.702-0.702 0.703-1.404-0.351-0.351-0.351-0.351-0.703-0.702 2.106 2.106 2.809 3.862 5.266 4.212-1.053-1.053 0-1.404-1.404-2.457-0.702-1.404-1.755 0.702-2.457-0.351 0.702-1.053 0-2.457 0-3.511-0.702 0-1.404 0-1.756-1.053-0.702-0.351-1.053 0-1.404 0.702-0.351-0.351-0.351-1.053-0.702-1.404v-0.351c-0.351-0.351-0.702-1.053-1.053-1.405-2.809-7.372-4.564-17.202-8.426-23.521 1.053-4.213-0.702-12.638-1.755-14.745 1.053-1.755 0.351-9.83-0.351-11.234-1.755 0.702 0.351 4.564-1.404 5.617-1.755-7.723 1.053-16.5 0.351-23.521 0.702 0 1.404 0 1.404-0.351-1.053-1.053 0.702-3.16 0.351-5.617 1.404-3.16-3.16 4.564-3.16 7.723-0.351 0.702-1.755 0-1.404 1.756 0 2.457 0.702 7.372-0.702 10.883-0.702 0-0.702-0.702-1.404-0.351-0.351 1.755-0.702 3.862-1.053 5.617-0.351-0.702-0.702-1.755-0.703-2.107-1.755-8.777 0-18.958-0.702-26.33 1.404 0 1.404-2.106 2.458-2.808-0.351 2.809-1.053 6.319 0.702 7.021 1.404-13.692 4.213-28.787 10.532-43.532 4.564-10.883 11.234-21.766 19.308-30.543 0.702 1.053-0.351 3.511 0 4.564 7.021-7.372 11.585-16.149 19.309-21.064 0.351 1.755-3.16 3.16-3.16 4.564 3.16-3.16 4.213-2.106 7.724-3.159 1.053-1.404-1.404 0-1.756-1.405 2.106-1.404 3.511-3.16 4.915-4.212 0 0.351-0.351 0.351-0.351 0.702 3.862-1.053 4.213-3.16 7.022-3.862-0.351-0.351-1.053-0.702-2.107-0.351 0.702-0.351 1.755-1.053 2.809-1.404-0.351 0-0.351 0.351-0.702 0.351 2.106-1.053 0.351 0.351 0.351 1.053 0.351 0 0.702-0.351 0.702-0.351-2.106 1.404-3.511 2.106-4.213 4.564 1.053-0.702 1.404 0 2.809-1.054 1.404-0.702-0.351-1.755 0.702-2.457 1.053 0.702 2.457 0.351 3.51 0.351 0-0.702 0.351-1.404 1.054-1.755 0.351-0.702 0-1.053-0.352-1.053 0.351-0.351 0.702-0.351 1.405-0.703 0 0 0.351 0 0.351 0.351 5.968-2.809 12.638-5.266 18.957-7.372 3.862-0.351 8.777-0.351 10.883-2.808-0.702 0-1.404 0.351-1.755 0 0.351 0 1.053-0.351 1.404-0.351 0.702 0.702 1.755 0 0.702 1.404 0.351 0 0.351 0 0.703-0.351 0 0.351 0 0.351 0.351 0.702 0.351 0 0.702-0.351 1.053-1.053 0.351 0 0.702 0 1.053-0.351l-0.351 0.351c2.809-0.702 5.266-0.351 9.128-1.054 0-0.351 0-0.702 0-1.053 0.702 0 1.053-0.351 1.755-0.351v0.351c1.404-0.702 2.809 0.702 2.808 0 0.351 0 0.351 0 0.703 0 0 0.702-0.351 1.053-0.351 1.405 1.755 0 2.809 0 3.51-1.054-0.351-0.351-0.702-0.351-1.053-0.351 0.702 0 1.404-0.351 2.106-0.702 1.053 0.351 1.404 0.702 1.405 2.107 1.755-3.16 7.372 0.702 9.829 0 1.053 0 0.702-1.404 1.405-2.107 0.351 0 0.702 0 1.053 0 1.755 1.404 4.213 2.809 7.372 3.16-2.809-0.702 0.351-1.053 0.702-1.405-0.702 0-0.702-0.351-0.702-0.702 1.053 0 2.106 0.351 3.16 0.351 0 0.702 0.351 1.053 1.053 1.054 0.702 0 0.702-0.351 0.702-1.054 1.053 0 1.755 0 2.809 0.351-0.351 1.404 1.755 1.755 2.457 2.809-2.809-0.702-5.968-1.755-7.021 0 11.234 2.457 23.521 5.968 35.457 11.936 0 0 0 0 0 0.351h0.352c2.106 1.053 4.213 2.106 6.319 3.16 1.404 0.702 2.457 1.404 3.861 2.457 0 0.351 0 0.702 0.703 0.702h0.351c1.404 1.053 2.809 1.755 4.212 2.809 1.404 2.106 2.809 4.915 5.266 4.213 5.266 8.075 10.883 11.234 15.447 19.659 0.351-1.404 1.404 3.16 3.16 3.511-2.809-0.351 1.755 1.755-1.053 1.404 2.457 2.457 3.16 3.511 3.51 6.319-0.702-1.404-1.053-1.755-1.404-0.351-0.351 2.106 2.457-0.351 3.511 1.756-2.106 0-1.404 1.404-1.054 3.159 1.053-1.053 0.702-2.106 1.756-1.755 1.404 1.404-0.702 1.755-0.351 2.809 1.053-1.404 1.404-0.702 2.808 0-1.755 0.351 1.053 2.809-1.053 1.755 1.404 1.755 1.755 2.809 1.053 4.564-1.404-2.106-0.351-3.511-2.457-3.16 4.213 3.511 2.106 11.585 7.021 12.287-3.16 0.702 0 2.106-1.755 2.458 2.106 0.702 1.053 3.511 3.51 4.213-0.351 1.755-1.053 2.809-1.404 4.563 1.053 1.404 1.404 4.213 3.16 4.564-1.053 1.053-0.351 3.862-1.404 4.915 1.404-0.702 2.106-0.702 3.159 0.702-1.755 1.404-0.351 2.809-1.404 3.16 3.16 8.075-0.702 24.575 1.053 30.894-2.106-1.053-1.404 2.457-2.808 2.457 2.457 1.053 0.351 2.809 1.404 4.564-4.915 2.809 0 10.532-6.67 12.287 0.702 4.915-2.106 7.021-4.213 12.288-0.351-0.351-0.351-0.702-0.702-1.054-0.351 2.457-1.755 2.809-1.054 4.915l-1.404-0.702c0 3.862-5.968 5.968-7.372 11.936-0.351 1.755-5.617 6.319-7.022 8.777-0.702 1.053-0.351 2.809-1.053 0.351-0.351 0.351-1.053 0.351-1.404 0.351-0.351 2.457-2.457 3.16-3.16 6.319-0.702 0.351-1.755-0.702-2.457 0.351 0 0.702 0.702 1.755 0.351 2.458 6.319-0.351 6.319-7.723 11.234-10.181-0.351 1.053-2.457 2.106-1.053 2.808 1.053 0 4.213-3.511 2.457-3.159 1.053 0.702-1.053 1.404-1.404 1.053 1.755-1.404 1.053-3.16 2.458-3.511 1.053 0.702-1.053 2.457 1.053 2.107 1.404-3.16 3.16-3.511 5.266-5.266-1.404 1.404 1.755 1.755 0.351 3.159-5.266 1.053-3.511 7.021-8.777 7.724-1.404 1.053-0.351 1.404-0.702 2.457-1.755-1.053-5.617 4.915-4.213 4.564-1.755 1.755-2.809 1.053-4.212 1.404-0.351 1.404 1.404 0.351 0.702 1.405-2.457-1.053-5.617 2.457-7.724 4.915l-1.053-1.054c-1.053 2.809-3.862 3.16-7.021 5.266 3.511 1.755 9.479-5.617 11.234-4.564 0.351 0 3.16-2.809 4.213-3.861 4.564-3.511 10.181-6.319 12.287-10.181-0.351 0.702-2.457 0.702-1.404-0.351 1.053-0.351 2.106 0.351 3.159 0.351 5.617-7.723 12.638-14.043 17.905-23.17 0.351-0.351 0.702-1.053 1.053-1.756-0.702 2.106-1.755 3.862-2.458 5.968-5.617 3.862-7.723 15.096-14.393 16.851 0.351 3.862-3.16 4.915-4.915 9.479-1.053 1.404-1.755-1.053-2.809 0.702 1.053 4.915-8.777 4.564-8.425 9.128-0.702 0.351-1.755 0.702-2.458 1.404h-0.351c-0.351 0.351-0.351 0.351-0.702 0.702-1.755 1.053-3.16 2.106-4.564 3.16-4.915 2.809-11.585 4.915-16.851 7.723v-0.351c-1.404 0.702-3.16 0.351-2.809 1.756-1.053 0.702-2.106 1.404-3.159 2.106-0.351 0-0.351 0-0.702 0 0 0-0.351-0.351-0.702-0.351-0.702 0-0.702 0-1.054 0.351-4.564 0.351-10.532 2.457-12.287 3.862-1.755-1.053-9.83 0.702-11.234 1.404 0.702 1.053 2.809 0 4.564 0-1.053 0.351-2.106 0.702-2.458 1.404-0.351 0-0.351 0-0.702 0-0.351-1.053-1.404 0-1.755-0.351h0.351c-0.351-1.404-1.404-2.106-3.16-1.755 0 0.702 0 1.053-0.351 1.755 0.702 0 2.809-1.053 2.809 0-0.351 0-0.351 0.351 0 0.351-0.702 0.702-1.755 0.702-2.458 1.054-1.404 0-3.16 0-4.563 0-0.351-0.351-0.702-0.351-1.405-0.703-0.351 0.351-1.053 0.351-1.404 0.703-2.106 0-4.564 0.351-6.319 0.702 0-0.702 0-1.404-0.702-1.405-1.053 1.404-3.16-0.351-5.617 0.352-2.457-0.702 1.404 1.053 4.915 1.755-0.351 0.351-0.702 0.702-1.756 1.053M116.068 308.271c-4.915-4.564-15.096-6.67-16.851-10.181-2.809-0.351-7.021-5.617-10.532-6.319 1.755 0 0.351-1.053 0-1.755-0.702 0.702-1.404 1.053-2.106 1.053 0-2.809-2.809-4.564-5.266-6.319 1.755 1.053 3.16 1.755 5.266 2.106 0-0.702 0-1.404 0.702-1.404 2.457 2.457 5.266 4.915 8.425 7.372 4.213 3.862 25.979 13.692 29.841 15.447 0 0-0.702 1.404-0.351 1.404 1.755 1.053 3.16-1.053 3.511 1.404-5.617 0.702-7.723-3.16-12.639-2.808M277.909 226.824v0.351 0c-0.351 0 0-0.351 0-0.351M136.079 64.281c-0.351 0.351-0.702 0.351-0.702 0.351 0-0.351 0.351-0.351 0.702-0.351M129.409 66.036c0 0.351 0 0.351 0 0 0 0.351 0 0.351 0 0 0 0.351 0 0 0 0M106.238 73.408v0c0.351-0.351 0.351-0.351 0.703-0.351-0.351 0-0.702 0.351-0.703 0.351M162.409 61.823c-0.702 0-1.053 0-1.404-0.351 0.351 0 0.702 0 1.053 0h0.351c0 0 0 0 0 0.351M168.728 62.525c-0.351-0.351-1.404-0.702-2.457-0.702 0-0.351 0.351-0.702 0.351-0.702 0.351 0 0.702 0 1.053 0 0 0 0.351 0 0.351 0.351 0 0 0 0 0-0.351 0.351 0 0.351 0 0.702 0 0.351 0.702 0.702 1.053 0 1.404M180.313 63.579c-1.755 0.351-2.809-0.351-4.564-1.405 1.053 0 2.457 0.351 3.511 0.702 0.351 0 0.702 0.351 1.053 0.703M305.292 113.43c-0.702 0.351-1.053 0.351-1.755-1.053-5.617-11.936-15.798-29.138-30.543-43.532-14.394-14.745-33.702-26.681-51.255-33.001 1.053 0.351 2.457 1.053 1.755 1.756-15.447-5.968-30.192-9.479-44.234-10.883-37.915-5.968-77.585 2.106-108.128 21.766 0.351 0.702 0.351 1.053-0.702 1.755-11.234 7.021-27.032 19.309-39.671 35.458-12.638 16.149-22.468 36.511-26.681 54.766 0.351-1.053 0.702-2.809 1.405-2.107-9.128 36.16-6.67 67.053 5.968 93.735 0.702-0.702-1.755-4.213 0.351-3.862 1.404 3.862 3.16 8.075 5.266 11.936 2.457 5.617 5.266 12.989 9.128 14.745-9.83-19.309-16.5-41.426-17.203-61.085 1.404 2.809 1.053 8.777 3.16 11.234 0.702-13.34-2.457-31.245 2.106-43.883-1.053 6.67-1.755 15.798-1.053 24.925 0 6.67 3.16 25.277 5.266 27.032-0.351-0.351-0.351-2.106 0-2.106 1.053 2.106-1.404 3.16 0.351 3.511 0-0.702 0.351-0.702 0.702-0.703 3.511 7.723 8.075 19.66 11.585 25.628 4.213 7.723 9.83 14.745 16.149 21.064 0 0.351 0.351 0.351 0.352 0.702 0.702 1.755 3.16 3.862 3.861 5.266 0.351 0.702-0.351 1.755 0 2.458 5.266 9.83 12.989 19.66 22.468 27.383 5.968 7.021 15.447 14.394 27.032 20.713 11.234 5.968 24.223 10.883 36.16 13.691 8.426 2.106 18.606 2.457 24.926 3.862 8.426 1.755 23.17-0.702 30.542-2.107 44.234-6.67 88.117-36.862 110.235-80.393 22.819-43.883 22.117-97.596 2.457-138.671" fill="#ffdb99" fill-rule="nonzero" stroke="none" stroke-width="1" stroke-linecap="butt" stroke-linejoin="miter" stroke-miterlimit="10" stroke-dasharray="" stroke-dashoffset="0" font-family="none" font-weight="none" font-size="none" text-anchor="none" style="mix-blend-mode: normal" data-fill-palette-color="tertiary"></path></g><g transform="matrix(1,0,0,1,80,115.11811023622047)"><svg viewBox="0 0 160 129.76377952755905" height="129.76377952755905" width="160"><g><svg viewBox="0 0 160 129.76377952755905" height="129.76377952755905" width="160"><g><svg viewBox="0 0 160 129.76377952755905" height="129.76377952755905" width="160"><g><svg viewBox="0 0 160 129.76377952755905" height="129.76377952755905" width="160"><g id="textblocktransform"><svg viewBox="0 0 160 129.76377952755905" height="129.76377952755905" width="160" id="textblock"><g><svg viewBox="0 0 160 129.76377952755905" height="129.76377952755905" width="160"><g transform="matrix(1,0,0,1,0,0)"><svg width="160" viewBox="-15.48 -46.24 74.42 60.349999999999994" height="129.76377952755905" data-palette-color="#ffdb99"><path d="M58.94 2L58.94 2Q58.84 2.98 58.25 3.54 57.67 4.1 56.74 4.1L56.74 4.1Q56.25 4.1 55.81 3.96L55.81 3.96Q54.88 4.69 53.61 5.08 52.34 5.47 51.22 5.86L51.22 5.86Q49.85 5.81 48.54 5.62 47.22 5.42 45.8 5.52L45.8 5.52Q45.31 5.18 44.78 5.08 44.24 4.98 43.68 4.96 43.12 4.93 42.6 4.79 42.09 4.64 41.6 4.1L41.6 4.1 39.16 4.1Q38.82 4.1 38.16 3.78 37.5 3.47 36.69 3.13 35.89 2.78 34.99 2.49 34.08 2.2 33.3 2.2L33.3 2.2 33.01 2.2Q32.47 1.76 31.76 1.54 31.05 1.32 30.32 1.15 29.59 0.98 28.91 0.78 28.22 0.59 27.73 0.24L27.73 0.24Q27.25-0.1 26.61-0.46 25.98-0.83 25.29-0.78L25.29-0.78Q24.37-1.32 23.36-1.71 22.36-2.1 21.34-2.44L21.34-2.44 19.34-3.17Q18.36-3.56 17.38-4.1L17.38-4.1Q17.24-4.05 17.04-4.1 16.85-4.15 16.7-4.15L16.7-4.15Q16.41-4.15 16.36-3.96L16.36-3.96Q16.02-4.3 15.6-4.54 15.19-4.79 14.79-5.13L14.79-5.13Q14.6-5.08 14.43-5.05 14.26-5.03 14.01-5.03L14.01-5.03Q13.57-5.03 13.16-5.13 12.74-5.22 12.35-5.37L12.35-5.37Q11.91-4.39 11.77-3.17 11.62-1.95 11.55-0.66 11.47 0.63 11.38 1.93 11.28 3.22 10.94 4.3L10.94 4.3Q11.04 4.69 11.04 5.08L11.04 5.08 11.04 5.91Q11.04 6.74 11.28 7.23L11.28 7.23Q11.18 7.67 11.11 8.06 11.04 8.45 10.94 8.84L10.94 8.84Q10.99 9.38 11.01 9.84 11.04 10.3 11.04 10.84L11.04 10.84 11.04 11.67Q11.04 12.11 10.94 12.55L10.94 12.55Q10.45 12.84 9.96 13.11 9.47 13.38 8.98 13.77L8.98 13.77Q8.64 13.13 7.81 13.04L7.81 13.04Q7.62 13.28 7.54 13.7 7.47 14.11 7.08 14.11L7.08 14.11Q6.4 13.57 5.96 13.23 5.52 12.89 4.98 12.21L4.98 12.21Q4.93 12.11 4.93 11.96L4.93 11.96Q4.93 11.72 5.03 11.52 5.13 11.33 5.13 11.13L5.13 11.13Q5.13 10.55 4.98 10.11L4.98 10.11Q4.88 9.47 4.83 8.86 4.79 8.25 4.79 7.67L4.79 7.67Q4.79 6.84 4.91 6.05 5.03 5.27 5.37 4.44L5.37 4.44Q5.91 3.03 6.13 1.46 6.35-0.1 6.45-1.68 6.54-3.27 6.57-4.88 6.59-6.49 6.74-7.96L6.74-7.96Q6.4-8.74 5.93-9.2 5.47-9.67 5.47-10.69L5.47-10.69Q5.47-11.62 6.05-12.13 6.64-12.65 7.08-13.38L7.08-13.38Q6.98-13.67 7.23-13.77L7.23-13.77 7.81-18.9Q7.86-19.43 7.98-20.07 8.11-20.7 8.15-21.24L8.15-21.24Q8.25-22.36 8.25-23.44 8.25-24.51 8.35-25.59L8.35-25.59Q8.59-27.98 8.81-30.32 9.03-32.67 9.03-35.01L9.03-35.01Q9.03-36.13 8.96-37.26 8.89-38.38 8.64-39.5L8.64-39.5Q7.81-39.26 6.81-38.99 5.81-38.72 5.13-38.09L5.13-38.09 4.74-38.09Q3.47-38.09 2.37-37.6 1.27-37.11 0.15-36.67L0.15-36.67Q-0.34-36.43-0.83-36.35-1.32-36.28-1.86-36.13L-1.86-36.13Q-2.1-36.08-2.39-35.84-2.69-35.6-2.93-35.5L-2.93-35.5-3.76-35.3Q-4.1-35.21-4.05-34.86-4-34.52-4.3-34.42L-4.3-34.42Q-4.54-34.18-4.98-34.2-5.42-34.23-5.66-34.23L-5.66-34.23-5.86-34.23Q-7.08-33.35-8.23-32.74-9.38-32.13-10.94-31.93L-10.94-31.93-12.01-31.25Q-12.55-30.91-13.23-30.91L-13.23-30.91Q-13.77-30.91-14.11-31.1L-14.11-31.1Q-14.5-31.69-14.72-32.42-14.94-33.15-15.48-33.69L-15.48-33.69Q-15.23-33.94-15.16-34.35-15.09-34.77-14.99-35.11L-14.99-35.11Q-13.53-35.74-12.04-36.33-10.55-36.91-9.18-37.74L-9.18-37.74Q-9.03-37.7-8.74-37.7L-8.74-37.7Q-8.25-37.7-7.86-37.84-7.47-37.99-7.08-38.18-6.69-38.38-6.3-38.53-5.91-38.67-5.37-38.62L-5.37-38.62Q-3.71-39.55-1.86-40.14 0-40.72 1.66-41.75L1.66-41.75Q1.9-41.75 2.08-41.65 2.25-41.55 2.44-41.55L2.44-41.55Q2.64-41.55 2.69-41.6L2.69-41.6Q2.98-41.99 3.47-42.16 3.96-42.33 4.47-42.46 4.98-42.58 5.44-42.8 5.91-43.02 6.05-43.51L6.05-43.51Q6.3-43.31 6.79-43.31L6.79-43.31Q7.62-43.31 8.33-43.65 9.03-43.99 9.86-43.99L9.86-43.99Q10.06-43.99 10.23-43.92 10.4-43.85 10.6-43.85L10.6-43.85Q10.99-43.85 11.01-44.09 11.04-44.34 11.28-44.53L11.28-44.53Q14.26-45.07 17.21-45.51 20.17-45.95 23.19-45.95L23.19-45.95Q23.63-46.24 24.17-46.24L24.17-46.24Q24.71-46.24 25.15-45.95L25.15-45.95Q25.98-46.04 26.81-46.09 27.64-46.14 28.47-46.14L28.47-46.14Q30.37-46.14 32.37-45.9 34.38-45.65 36.35-45.14 38.33-44.63 40.14-43.77 41.94-42.92 43.51-41.75L43.51-41.75Q43.65-41.31 43.9-40.87 44.14-40.43 44.53-40.19L44.53-40.19Q44.53-40.09 44.51-40.04 44.48-39.99 44.48-39.89L44.48-39.89Q44.48-39.36 44.8-38.87 45.12-38.38 45.12-37.7L45.12-37.7Q45.12-37.01 44.9-36.33 44.68-35.64 44.73-34.96L44.73-34.96Q44.19-34.18 43.82-33.54 43.46-32.91 43.36-31.93L43.36-31.93Q42.48-31.05 41.8-30 41.11-28.96 40.41-27.95 39.7-26.95 38.82-26.12 37.94-25.29 36.72-24.8L36.72-24.8Q36.67-24.32 36.33-23.73L36.33-23.73 35.3-23.73Q35.16-23.34 34.81-23.14L34.81-23.14 34.13-22.75Q33.79-22.56 33.57-22.27 33.35-21.97 33.35-21.44L33.35-21.44Q33.25-21.48 33.11-21.48L33.11-21.48Q32.62-21.48 31.96-21 31.3-20.51 30.91-20.21L30.91-20.21Q30.08-19.63 29.22-19.14 28.37-18.65 27.73-17.77L27.73-17.77Q25.78-16.94 24.02-15.84 22.27-14.75 20.21-14.11L20.21-14.11Q19.43-13.28 18.38-12.82 17.33-12.35 16.36-11.82L16.36-11.82 16.36-11.67Q16.36-11.28 16.65-10.91 16.94-10.55 17.33-10.28 17.72-10.01 18.19-9.91 18.65-9.81 18.99-9.91L18.99-9.91Q19.97-9.03 21.24-8.5 22.51-7.96 23.88-7.52 25.24-7.08 26.56-6.59 27.88-6.1 29-5.37L29-5.37 30.18-5.37Q31.3-4.39 32.84-3.91 34.38-3.42 35.79-3.03L35.79-3.03Q36.38-2.49 37.28-2.22 38.18-1.95 39.01-1.95L39.01-1.95 39.31-1.95Q39.5-1.95 39.65-2L39.65-2 39.65-1.9Q39.65-1.66 39.79-1.59 39.94-1.51 40.11-1.49 40.28-1.46 40.45-1.39 40.63-1.32 40.72-1.17L40.72-1.17 41.21-1.17Q42.24-1.17 43.16-0.76 44.09-0.34 45.12-0.34L45.12-0.34Q45.56-0.34 45.8-0.44L45.8-0.44Q46.09-0.34 46.24-0.05 46.39 0.24 46.63 0.44L46.63 0.44Q46.97 0.39 47.27 0.37 47.56 0.34 47.85 0.34L47.85 0.34Q48.93 0.34 49.85 0.59 50.78 0.83 51.76 1.32L51.76 1.32Q53.32 0.63 54.83 0.2 56.35-0.24 58.06-0.24L58.06-0.24 58.06-0.15Q58.06 0.44 58.37 0.95 58.69 1.46 58.94 2ZM40.23-36.96L40.23-36.96Q40.23-37.55 40.01-37.89 39.79-38.23 39.45-38.5 39.11-38.77 38.75-39.01 38.38-39.26 38.09-39.65L38.09-39.65Q36.82-40.04 35.6-40.53 34.38-41.02 33.11-41.36L33.11-41.36Q32.47-41.5 31.84-41.63 31.2-41.75 30.57-41.75L30.57-41.75 29.49-41.75Q29.2-41.8 28.88-41.87 28.56-41.94 28.27-41.99L28.27-41.99Q27.59-42.09 26.93-42.14 26.27-42.19 25.59-42.19L25.59-42.19Q24.32-42.19 23.05-42.09L23.05-42.09 20.51-41.89Q19.97-41.85 19.38-41.85 18.8-41.85 18.31-41.75L18.31-41.75Q18.07-41.7 17.63-41.53 17.19-41.36 16.7-41.19 16.21-41.02 15.75-40.82 15.28-40.63 14.94-40.53L14.94-40.53Q14.99-40.19 14.99-39.84L14.99-39.84 14.99-39.21Q14.99-38.48 14.94-37.74 14.89-37.01 14.75-36.28L14.75-36.28Q14.7-35.99 14.6-35.69 14.5-35.4 14.45-35.11L14.45-35.11Q14.36-34.67 14.36-34.13L14.36-34.13 14.36-33.2Q14.26-32.08 14.21-31.01 14.16-29.93 14.06-28.81L14.06-28.81Q13.77-25.59 13.45-22.41 13.13-19.24 13.04-16.02L13.04-16.02Q14.65-16.36 16.11-17.04 17.58-17.72 18.99-18.53 20.41-19.34 21.83-20.12 23.24-20.9 24.8-21.44L24.8-21.44Q25.2-21.97 25.76-22.31 26.32-22.66 26.71-23.19L26.71-23.19Q27.2-23.19 27.44-23.41 27.69-23.63 28.08-23.73L28.08-23.73Q30.42-25.78 32.86-27.59 35.3-29.39 37.55-31.45L37.55-31.45Q37.74-32.13 38.21-32.79 38.67-33.45 39.11-34.13 39.55-34.81 39.89-35.5 40.23-36.18 40.23-36.96Z" opacity="1" transform="matrix(1,0,0,1,0,0)" fill="#ffdb99" class="undefined-text-0" data-fill-palette-color="primary" id="text-0"></path></svg></g></svg></g></svg></g></svg></g><g></g></svg></g></svg></g></svg></g></svg></g><defs></defs></svg><rect width="320" height="360" fill="none" stroke="none" visibility="hidden"></rect></g></svg></g></svg>